<?xml version="1.0" encoding="UTF-8"?>
<svg version="1.1" xmlns="http://www.w3.org/2000/svg" width="148" height="97">
<path d="M0 0 C1.37940339 -0.01656063 2.75872091 -0.0438533 4.13769531 -0.08203125 C6.12382841 -0.13675221 8.1108493 -0.15552982 10.09765625 -0.17333984 C11.29052246 -0.19315918 12.48338867 -0.21297852 13.71240234 -0.23339844 C16.69921875 0.35009766 16.69921875 0.35009766 18.60009766 2.70703125 C19.75845096 5.49253389 19.95494604 7.36661265 19.69921875 10.35009766 C19.03921875 10.68009766 18.37921875 11.01009766 17.69921875 11.35009766 C13.14366319 9.7945421 13.14366319 9.7945421 11.69921875 8.35009766 C10.21050015 8.26340334 8.71777375 8.24306272 7.2265625 8.25244141 C5.87788086 8.25727539 5.87788086 8.25727539 4.50195312 8.26220703 C3.55642578 8.27058594 2.61089844 8.27896484 1.63671875 8.28759766 C0.68732422 8.29210937 -0.26207031 8.29662109 -1.24023438 8.30126953 C-3.5938119 8.31309655 -5.94726602 8.3295774 -8.30078125 8.35009766 C-8.71650391 9.61466797 -8.71650391 9.61466797 -9.140625 10.90478516 C-9.50285156 12.00048828 -9.86507812 13.09619141 -10.23828125 14.22509766 C-10.59792969 15.31564453 -10.95757812 16.40619141 -11.328125 17.52978516 C-12.30078125 20.35009766 -12.30078125 20.35009766 -13.30078125 22.35009766 C-17.05926299 23.6029249 -20.55569044 23.47391601 -24.46875 23.44775391 C-25.26356277 23.44633896 -26.05837555 23.44492401 -26.87727356 23.44346619 C-29.4143145 23.43787143 -31.951267 23.42531993 -34.48828125 23.41259766 C-36.2089831 23.40758198 -37.92968633 23.40301919 -39.65039062 23.39892578 C-43.86724894 23.38875487 -48.08391616 23.36917849 -52.30078125 23.35009766 C-51.97078125 31.93009766 -51.64078125 40.51009766 -51.30078125 49.35009766 C-47.67078125 50.67009766 -44.04078125 51.99009766 -40.30078125 53.35009766 C-36.62534538 56.89657086 -33.41955255 60.25347284 -32.30078125 65.35009766 C-32.48794276 71.24568517 -33.40094544 74.73187104 -37.30078125 79.35009766 C-40.64015112 82.34144387 -43.8089162 84.38113968 -48.17578125 85.47509766 C-49.20703125 85.76384766 -50.23828125 86.05259766 -51.30078125 86.35009766 C-51.79578125 87.83509766 -51.79578125 87.83509766 -52.30078125 89.35009766 C-42.28497678 89.27283706 -42.28497678 89.27283706 -33.83203125 84.56103516 C-29.0250409 80.75958871 -22.14872646 80.71445144 -16.30078125 81.35009766 C-11.9095005 82.32991111 -8.332786 83.40176897 -4.98828125 86.47509766 C-0.59590416 89.53954679 4.46172095 89.18303234 9.69921875 89.35009766 C9.69921875 88.03009766 9.69921875 86.71009766 9.69921875 85.35009766 C8.50296875 85.26759766 7.30671875 85.18509766 6.07421875 85.10009766 C1.67268163 84.50235805 -0.94489095 83.4076866 -4.30078125 80.35009766 C-7.68433055 75.50150639 -9.77506695 71.20953123 -9.11328125 65.22509766 C-8.84515625 63.94634766 -8.57703125 62.66759766 -8.30078125 61.35009766 C-6.98078125 61.35009766 -5.66078125 61.35009766 -4.30078125 61.35009766 C-1.60042384 64.05045507 -1.58501138 66.4808968 -0.9609375 70.15869141 C-0.20060136 72.68264746 0.67535416 73.69878525 2.69921875 75.35009766 C5.70708878 76.8110631 8.63704862 77.54808305 11.88671875 78.22509766 C15.69921875 79.35009766 15.69921875 79.35009766 16.92578125 81.03369141 C17.9036272 83.96229064 17.92802946 86.45431645 17.88671875 89.53759766 C17.88027344 90.60365234 17.87382813 91.66970703 17.8671875 92.76806641 C17.69921875 95.35009766 17.69921875 95.35009766 16.69921875 96.35009766 C13.12533592 96.68573335 9.5368311 96.67514356 5.94921875 96.72509766 C4.94632812 96.76248047 3.9434375 96.79986328 2.91015625 96.83837891 C-4.58347445 96.92782543 -4.58347445 96.92782543 -8.33203125 93.90869141 C-8.98171875 93.06435547 -9.63140625 92.22001953 -10.30078125 91.35009766 C-16.4291709 88.42518441 -22.70613226 88.48521466 -29.05078125 90.60009766 C-32.30051252 92.13842116 -32.30051252 92.13842116 -34.328125 94.44384766 C-38.79629346 97.30911206 -42.92834225 96.78117007 -48.11328125 96.60009766 C-49.09232422 96.58205078 -50.07136719 96.56400391 -51.08007812 96.54541016 C-53.48798896 96.49842653 -55.8938746 96.4327546 -58.30078125 96.35009766 C-58.47185826 94.93119813 -58.63906892 93.51183216 -58.8046875 92.09228516 C-58.8982251 91.30192871 -58.9917627 90.51157227 -59.08813477 89.69726562 C-59.39553508 86.30421554 -59.28262046 83.62289501 -58.30078125 80.35009766 C-55.63309328 78.48271608 -53.11997175 77.58734192 -50.0078125 76.68603516 C-45.063752 75.27059978 -45.063752 75.27059978 -41.17578125 72.03759766 C-40.06479105 68.62527062 -40.21099484 66.76476173 -41.30078125 63.35009766 C-44.32243193 59.5677517 -46.72524813 58.77199393 -51.42578125 57.97509766 C-54.63671875 57.26806641 -54.63671875 57.26806641 -57.30078125 56.35009766 C-59.04227645 53.30248105 -59.30078125 51.76485857 -59.30078125 48.35009766 C-59.8834375 48.33591797 -60.46609375 48.32173828 -61.06640625 48.30712891 C-71.33253613 47.7098855 -82.00309069 43.84897768 -89.30078125 36.35009766 C-92.01240395 32.28725958 -92.76269561 28.2001984 -92.30078125 23.35009766 C-90.37769235 21.42700875 -86.8300764 22.09687928 -84.203125 22.03369141 C-83.49426651 22.01291031 -82.78540802 21.99212921 -82.05506897 21.97071838 C-79.7829082 21.90515168 -77.51062861 21.84630535 -75.23828125 21.78759766 C-73.70115942 21.74441917 -72.16404975 21.7008051 -70.62695312 21.65673828 C-66.85168535 21.54946317 -63.07629765 21.44821628 -59.30078125 21.35009766 C-59.11515625 20.14353516 -59.11515625 20.14353516 -58.92578125 18.91259766 C-58.71953125 18.06697266 -58.51328125 17.22134766 -58.30078125 16.35009766 C-55.0747458 14.73707993 -51.55368087 15.22956167 -48.01171875 15.25244141 C-46.7840831 15.25456383 -46.7840831 15.25456383 -45.53164673 15.25672913 C-42.912988 15.26233476 -40.29441421 15.27488817 -37.67578125 15.28759766 C-35.90234498 15.29261193 -34.12890738 15.29717496 -32.35546875 15.30126953 C-28.00387343 15.31230602 -23.65234175 15.32957441 -19.30078125 15.35009766 C-19.10307129 14.81247803 -18.90536133 14.2748584 -18.70166016 13.72094727 C-18.43788574 13.00946533 -18.17411133 12.2979834 -17.90234375 11.56494141 C-17.51296631 10.51101196 -17.51296631 10.51101196 -17.11572266 9.43579102 C-13.1408811 -0.73708839 -10.45555094 0.09210842 0 0 Z M-84.30078125 29.35009766 C-81.42646041 35.09873933 -77.46770284 37.19567512 -71.50390625 39.36962891 C-66.6626503 40.80237898 -63.27054391 41.65745865 -58.30078125 40.35009766 C-58.27377695 38.89186554 -58.25438338 37.4334909 -58.23828125 35.97509766 C-58.22667969 35.16298828 -58.21507813 34.35087891 -58.203125 33.51416016 C-58.15611791 31.30072623 -58.15611791 31.30072623 -59.30078125 29.35009766 C-67.55078125 29.35009766 -75.80078125 29.35009766 -84.30078125 29.35009766 Z " fill="#00030A" transform="translate(93.30078125,0.64990234375)"/>
<path d="M0 0 C2.64 0 5.28 0 8 0 C9.10517324 2.98396776 10.06320093 5.96018261 11 9 C11.42925781 10.24136719 11.85851562 11.48273437 12.30078125 12.76171875 C16.44141616 26.17149863 13.66915992 37.96989555 9 51 C8 52 8 52 4.4375 52.0625 C3.303125 52.041875 2.16875 52.02125 1 52 C0.67 50.35 0.34 48.7 0 47 C0.99 46.34 1.98 45.68 3 45 C3.91045245 42.46965164 4.62873922 40.10117772 5.25 37.5 C5.42474854 36.77458008 5.59949707 36.04916016 5.77954102 35.30175781 C7.05897315 29.57714367 7.29293911 24.75862243 6 19 C5.68095703 17.41445313 5.68095703 17.41445313 5.35546875 15.796875 C4.28293028 9.39070183 4.28293028 9.39070183 0 5 C-0.1875 2.375 -0.1875 2.375 0 0 Z " fill="#01030A" transform="translate(109,18)"/>
<path d="M0 0 C-0.55841142 3.98865297 -0.9756483 6.107323 -4.06640625 8.80078125 C-10.31011337 13 -10.31011337 13 -13 13 C-13 13.66 -13 14.32 -13 15 C-11.9790625 15.3403125 -11.9790625 15.3403125 -10.9375 15.6875 C-7.24285987 17.33829665 -3.76736873 18.98247364 -1 22 C-0.5625 25.8125 -0.5625 25.8125 -1 29 C-5.68320529 27.36315155 -9.66438473 24.91749614 -13.8125 22.25 C-14.85180664 21.62351562 -14.85180664 21.62351562 -15.91210938 20.984375 C-19.13753667 18.89976386 -20.73278477 17.7818133 -22 14.07421875 C-20.37949705 9.0924382 -16.49611848 7.24758108 -12.1875 4.5625 C-11.35412109 4.00884766 -10.52074219 3.45519531 -9.66210938 2.88476562 C-3.42129772 -1.14043257 -3.42129772 -1.14043257 0 0 Z " fill="#00030A" transform="translate(105,30)"/>
<path d="M0 0 C4.68320529 1.63684845 8.66438473 4.08250386 12.8125 6.75 C13.50537109 7.16765625 14.19824219 7.5853125 14.91210938 8.015625 C19.80692437 11.17917046 19.80692437 11.17917046 20.73046875 15.10546875 C19.79837326 18.79895942 18.69684732 19.56447043 15.5 21.5625 C14.13875 22.43261719 14.13875 22.43261719 12.75 23.3203125 C11.8425 23.87460937 10.935 24.42890625 10 25 C9.21625 25.51304688 8.4325 26.02609375 7.625 26.5546875 C2.33050847 30 2.33050847 30 0 30 C-0.5625 27.4375 -0.5625 27.4375 0 24 C2.10612763 21.94587552 4.33016117 20.30012865 6.73828125 18.61328125 C8.71950362 17.20007773 10.3448057 15.77303985 12 14 C10.9790625 13.6596875 10.9790625 13.6596875 9.9375 13.3125 C6.24285987 11.66170335 2.76736873 10.01752636 0 7 C-0.4375 3.1875 -0.4375 3.1875 0 0 Z " fill="#000309" transform="translate(128,29)"/>
</svg>
